<svg xmlns="http://www.w3.org/2000/svg" viewBox="0 0 180 210" fill="none" aria-hidden="true">
<!-- Original cel illustration. Hand/pull-handle pivot 74,100; hips 111/119,119. Flat fills only. -->
<g stroke="#302d36" stroke-width="1.7" stroke-linejoin="round" stroke-linecap="round">
  <g class="t-suitcase">
    <g transform="rotate(14 48 184)">
      <path d="M36 132V99Q36 96 40 96H53Q57 96 57 100V132" stroke="#39434d" stroke-width="4"/>
      <path d="M36 129V101M57 129V101" stroke="#d7e5e5" stroke-width="1.6"/>
      <path d="M40 96H53" stroke="#303138" stroke-width="5"/>
      <path d="M27 125H65L74 131V178L66 185H27Z" fill="#7d929f"/>
      <rect x="21" y="125" width="46" height="59" rx="6" fill="#dce5e5"/>
      <path d="M22 163L66 137V178Q66 184 60 184H28Q22 184 22 178Z" fill="#b8c8d0" stroke="none"/>
      <path d="M28 131H60M28 133V174" stroke="#fffaf0" stroke-width="2.2"/>
      <path d="M34 136V174M42 136V175M50 136V175M58 136V174" stroke="#849da9" stroke-width="3"/>
      <path d="M35 136V174M43 136V175M51 136V175M59 136V174" stroke="#eef5ef" stroke-width="1.3"/>
      <path d="M21 137V132Q21 125 28 125H34V131H29Q27 131 27 134V137ZM54 125H61Q67 125 67 132V137H61V134Q61 131 58 131H54ZM21 171H27V176Q27 179 30 179H34V184H28Q21 184 21 177ZM61 171H67V177Q67 184 60 184H54V179H58Q61 179 61 176Z" fill="#a36b43" stroke-width="1.2"/>
      <path d="M24 132Q24 128 31 128M57 128Q64 128 64 134M24 174Q24 181 31 181M57 181Q64 181 64 175" stroke="#e1b987" stroke-width=".9" stroke-dasharray="1 2"/>
      <path d="M69 147V159" stroke="#71482e" stroke-width="4"/>
      <path d="M70 149V156" stroke="#d5a975" stroke-width="1.3"/>
      <path d="M40 126V123Q45 119 50 123V126" stroke="#71482e" stroke-width="3"/>
      <rect x="40" y="144" width="12" height="5" rx="1" fill="#b4945d" stroke-width=".8"/>
      <path d="M44 146.5H48" stroke="#ffead0" stroke-width=".9"/>
      <g class="t-wheel t-wheel-far" style="transform-origin:31px 185px"><circle cx="31" cy="185" r="5" fill="#303943"/><circle cx="31" cy="185" r="2" fill="#c1d2d5" stroke-width=".8"/><path d="M31 182V188" stroke="#d5e1df" stroke-width="1"/></g>
      <g class="t-wheel t-wheel-near" style="transform-origin:64px 185px"><circle cx="64" cy="185" r="5" fill="#303943"/><circle cx="64" cy="185" r="2" fill="#c1d2d5" stroke-width=".8"/><path d="M64 182V188" stroke="#d5e1df" stroke-width="1"/></g>
    </g>
  </g>
  <g class="t-leg-far" style="transform-origin:111px 119px">
    <path d="M101 113L122 118L114 148L105 181L89 178L96 143Z" fill="#49617c"/>
    <path d="M114 127L103 153L99 176H90L97 145Z" fill="#354558" stroke="none"/>
    <path d="M100 143L95 164M94 174L104 176" stroke="#90a6b8" stroke-width="1.3"/>
    <path d="M89 177L105 179L103 185L87 183Z" fill="#98a9b6"/>
    <path d="M88 182L101 184L104 188L116 189Q120 190 118 194H84Q81 191 85 187Z" fill="#faf1dc"/>
    <path d="M84 190H118V194H84Z" fill="#c6c7bd" stroke-width="1"/>
  </g>
  <g class="t-leg-near" style="transform-origin:119px 119px">
    <path d="M113 114H134L137 148L136 183H118L116 151L109 135Z" fill="#7692ad"/>
    <path d="M114 124L124 139L126 180H118L116 151L109 135Z" fill="#48617d" stroke="none"/>
    <path d="M129 129L131 150V177M118 149L131 154" stroke="#bed0d9" stroke-width="1.5"/>
    <path d="M118 177H136V184H119Z" fill="#acbec9"/>
    <path d="M120 183H133L137 187L150 189Q155 190 153 194H118Q116 191 118 187Z" fill="#fff6e3"/>
    <path d="M118 190H153V194H118Z" fill="#d5d7cd" stroke-width="1"/>
    <path d="M129 186L136 187M127 188L136 189" stroke="#888f92" stroke-width="1"/>
  </g>
  <g class="t-body">
    <g class="t-arm-handle">
      <path d="M107 76Q101 78 98 89L91 97H77V104L95 108Q99 108 102 103L115 87Z" fill="#343943"/>
      <path d="M105 86L95 101H81" stroke="#79828c" stroke-width="2"/>
      <path d="M78 97H82L80 105L77 104Z" fill="#d65351" stroke-width=".8"/>
      <path d="M77 98L74 96Q71 94 68 97L67 100L73 101L72 103Q74 107 78 103Z" fill="#f0c1a3" stroke-width="1.1"/>
    </g>
    <path d="M109 70Q122 65 130 74L135 88L134 119Q119 125 103 118L101 90Z" fill="#cf484a"/>
    <path d="M111 87L119 90L120 120L104 117L103 93Z" fill="#8d333f" stroke="none"/>
    <path d="M110 74Q101 71 104 63Q117 63 126 77L127 84Q117 83 110 74Z" fill="#ec6960"/>
    <path d="M108 69Q116 70 123 80" stroke="#81313d" stroke-width="2"/>
    <path d="M121 85V97M126 85L129 95" stroke="#f6d5b4" stroke-width="1.5"/>
    <path d="M106 74L116 80L113 96L110 110L114 121L102 120L98 97Q98 81 106 74Z" fill="#303540"/>
    <path d="M129 75L137 83V105L139 120L128 121V95L124 81Z" fill="#303540"/>
    <path d="M105 78L111 83L105 91L111 94L105 110M130 81L127 87L133 93L129 98" fill="#59606c" stroke="#1f2831" stroke-width="1"/>
    <path d="M103 115L111 115M132 104L136 108" stroke="#c3b9a2" stroke-width="1.4"/>
    <circle cx="107" cy="93" r="1.3" fill="#e2c795" stroke-width=".6"/>
    <path d="M103 120Q119 124 136 120" stroke="#1f2831" stroke-width="2.4"/>
    <g class="t-arm-free" style="transform-origin:131px 82px">
      <path d="M132 80Q139 81 140 94L142 105L152 117L146 124L133 110Q130 104 129 97L126 87Z" fill="#303540"/>
      <path d="M135 88L137 105L148 117" stroke="#6c7683" stroke-width="2"/>
      <path d="M148 116L153 120L148 125L144 121Z" fill="#d95453" stroke-width="1"/>
      <path d="M152 120L156 123Q161 124 160 127L156 131Q153 131 151 128L148 125Z" fill="#f0c1a3" stroke-width="1.2"/>
    </g>
    <g class="t-head" style="transform-origin:121px 70px">
      <path d="M117 59V72Q124 78 131 74L129 59Z" fill="#d59b81"/>
      <g class="t-hair" style="transform-origin:118px 30px">
        <path d="M101 35Q95 48 101 63L98 76L105 84L111 80L116 86L124 75L130 42L119 27Z" fill="#dba859"/>
        <path d="M103 43L106 61L104 77L110 72L112 80L117 65L117 37Z" fill="#f8d184" stroke="none"/>
        <path d="M118 49L118 67L114 79L122 73L127 51Z" fill="#b87841" stroke="none"/>
      </g>
      <path d="M118 32Q136 26 142 40L144 48L150 53L144 57L143 63Q140 71 130 70L120 65L113 50Z" fill="#f4c5a7"/>
      <path d="M119 49L125 62L134 67L143 63Q139 72 130 70L120 65Z" fill="#d9937d" stroke="none"/>
      <ellipse cx="116.5" cy="52" rx="3" ry="4.5" fill="#efb397" stroke-width="1"/>
      <path d="M116 51Q119 50 117 55" stroke="#b67665" stroke-width="1"/>
      <g class="t-face t-face-calm">
        <path d="M124 44L130 43M135 43L140 44" stroke="#7e4e32" stroke-width="1.5"/>
        <g class="t-eyes"><path d="M123 48Q128 44 131 49Q127 52 123 48ZM135 48Q139 45 142 49Q138 51 135 48Z" fill="#fff9ed" stroke-width="1.1"/><ellipse cx="128" cy="48.5" rx="1.6" ry="2.2" fill="#567779" stroke-width=".6"/><ellipse cx="139" cy="48.5" rx="1.4" ry="2" fill="#567779" stroke-width=".6"/></g>
        <path class="t-blink-line" d="M124 49Q127 51 131 49M135 49Q139 51 142 49" stroke-width="1.4"/>
        <path d="M133 61Q137 64 140 60" stroke="#944e51" stroke-width="1.5"/>
      </g>
      <g class="t-face t-face-surprised">
        <path d="M124 41L130 40M136 40L141 42" stroke="#7e4e32"/>
        <ellipse cx="128" cy="48" rx="3.7" ry="4.3" fill="#fff9ed"/><ellipse cx="139" cy="48" rx="3" ry="4" fill="#fff9ed"/>
        <circle cx="129" cy="48" r="1.5" fill="#465666"/><circle cx="139" cy="48" r="1.4" fill="#465666"/>
        <ellipse cx="136" cy="62" rx="2.8" ry="3.5" fill="#763e48" stroke-width="1.2"/>
      </g>
      <g class="t-face-effort t-face">
        <path d="M124 43L131 46M135 46L141 43" stroke="#7e4e32"/>
        <path d="M124 49L131 50M135 50L142 49" stroke-width="2"/>
        <path d="M132 61Q136 59 140 61L139 64H133Z" fill="#fff7e9" stroke="#8b4850" stroke-width="1"/>
        <path d="M145 37Q150 42 148 44Q143 46 145 37Z" fill="#b2dfe6" stroke="#527e98" stroke-width="1"/>
      </g>
      <g class="t-face-air t-face"><path d="M124 47L130 50L124 52M141 47L135 50L141 52" stroke-width="2"/><path d="M131 61Q136 56 141 61L139 67H133Z" fill="#8b3d4e"/><path d="M134 65H138" stroke="#ed918c" stroke-width="2"/></g>
      <g class="t-face-landing t-face"><path d="M123 48Q127 53 132 48M135 48Q139 53 143 48" stroke-width="1.8"/><path d="M132 62Q136 65 140 61" stroke="#944e51" stroke-width="1.4"/></g>
      <g class="t-face-wink t-face"><path d="M123 49Q127 46 131 49" stroke-width="2"/><ellipse cx="139" cy="49" rx="2" ry="3" fill="#567779"/><path d="M131 60Q136 68 141 60Z" fill="#fff7e9" stroke="#944e51" stroke-width="1.2"/></g>
      <path d="M101 43Q98 30 111 25Q130 19 139 33L143 41L135 40L126 33L119 44L114 49L111 41L108 48Z" fill="#efc272"/>
      <path d="M107 34Q117 25 130 30L136 37L126 31L116 35L110 41Z" fill="#ffe2a0" stroke="none"/>
      <path d="M121 36L116 44L113 54L110 58L111 43Z" fill="#ba7d43" stroke="none"/>
      <circle cx="117" cy="58" r="1.2" fill="#eec977" stroke-width=".7"/>
      <path d="M108 28Q120 23 134 29" stroke="#232c38" stroke-width="3"/>
      <path d="M109 26L119 25V31Q114 34 110 31ZM123 25L134 28L132 33Q127 35 123 31Z" fill="#536b7d" stroke="#232c38" stroke-width="1.3"/>
      <path d="M119 28H123M111 27L116 26M126 27L131 28" stroke="#c7d5d4" stroke-width="1"/>
    </g>
  </g>
</g>
</svg>
